<?xml version="1.0" encoding="utf-8"?>
<!-- Generator: Adobe Illustrator 27.8.1, SVG Export Plug-In . SVG Version: 6.00 Build 0)  -->
<svg version="1.1" id="Capa_1" xmlns="http://www.w3.org/2000/svg" xmlns:xlink="http://www.w3.org/1999/xlink" x="0px" y="0px"
	 viewBox="0 0 24 24" style="enable-background:new 0 0 24 24;" xml:space="preserve">
<style type="text/css">
	.st0{fill:#FFFFFF;stroke:#000000;stroke-width:1.5;stroke-miterlimit:10;}
</style>
<path class="st0" d="M6.4,6.3C9.5,6.3,12,8.9,12,12s-2.5,5.7-5.6,5.7S0.8,15.1,0.8,12S3.3,6.3,6.4,6.3z M16.6,6.7
	c1.6,0,2.8,2.4,2.8,5.3h0c0,3-1.3,5.3-2.8,5.3S13.8,15,13.8,12S15.1,6.7,16.6,6.7z M22.3,7.2c0.5,0,1,2.1,1,4.8c0,2.6-0.4,4.8-1,4.8
	s-1-2.1-1-4.8S21.7,7.2,22.3,7.2z"/>
</svg>
